<svg xmlns="http://www.w3.org/2000/svg" viewBox="0 11.940000534057617 294.7300109863281 49.000003814697266" data-asc="0.98974609375"><g fill="#000000"><g fill="#000000" transform="translate(0, 0)"><path d="M34.99 46.78Q34.99 47.46 34.73 48.05Q34.47 48.63 34.05 49.06Q33.62 49.49 33.03 49.73Q32.45 49.98 31.79 49.98Q31.20 49.98 30.60 49.76Q30.00 49.54 29.54 49.05L6.35 24.83L6.35 49.49L0 49.49L0 17.19Q0 16.21 0.55 15.42Q1.10 14.62 1.95 14.23Q2.86 13.87 3.81 14.05Q4.76 14.23 5.44 14.94L28.64 39.14L28.64 14.48L34.99 14.48L34.99 46.78ZM69.87 31.84Q69.87 33.15 69.41 34.68Q68.95 36.21 67.91 37.51Q66.87 38.82 65.20 39.70Q63.53 40.58 61.13 40.58L49.68 40.58L49.68 34.55L61.13 34.55Q62.43 34.55 63.13 33.75Q63.84 32.96 63.84 31.79Q63.84 30.54 63.05 29.83Q62.26 29.13 61.13 29.13L49.68 29.13Q48.39 29.13 47.68 29.92Q46.97 30.71 46.97 31.88L46.97 40.75Q46.97 42.02 47.77 42.72Q48.56 43.43 49.73 43.43L61.13 43.43L61.13 49.49L49.68 49.49Q48.36 49.49 46.84 49.02Q45.31 48.56 44.01 47.52Q42.70 46.48 41.82 44.81Q40.94 43.14 40.94 40.75L40.94 31.84Q40.94 30.52 41.41 28.99Q41.87 27.47 42.91 26.16Q43.95 24.85 45.62 23.97Q47.29 23.10 49.68 23.10L61.13 23.10Q62.45 23.10 63.98 23.56Q65.50 24.02 66.81 25.06Q68.12 26.10 68.99 27.77Q69.87 29.44 69.87 31.84ZM102.86 40.58Q102.86 42.21 102.44 43.52Q102.03 44.82 101.34 45.81Q100.66 46.80 99.76 47.50Q98.85 48.19 97.86 48.63Q96.88 49.07 95.86 49.28Q94.85 49.49 93.95 49.49L82.50 49.49Q81.18 49.49 79.61 49.02Q78.05 48.56 76.72 47.50Q75.39 46.44 74.50 44.74Q73.61 43.04 73.61 40.58L73.61 31.98Q73.61 29.54 74.50 27.84Q75.39 26.15 76.72 25.09Q78.05 24.02 79.61 23.56Q81.18 23.10 82.50 23.10L93.95 23.10Q96.39 23.10 98.10 23.97Q99.80 24.85 100.85 26.18Q101.90 27.51 102.38 29.08Q102.86 30.64 102.86 31.98L102.86 40.58M96.51 32.03Q96.51 30.71 95.85 30.08Q95.19 29.44 93.95 29.44L82.54 29.44Q81.27 29.44 80.62 30.09Q79.96 30.74 79.96 31.98L79.96 40.58Q79.96 41.82 80.62 42.48Q81.27 43.14 82.54 43.14L93.95 43.14Q95.24 43.14 95.87 42.48Q96.51 41.82 96.51 40.58L96.51 32.03ZM137.50 49.49L131.15 49.49L131.15 34.84Q131.15 33.59 130.73 32.60Q130.30 31.62 129.57 30.91Q128.83 30.20 127.84 29.82Q126.86 29.44 125.71 29.44L114.60 29.44L114.60 49.49L108.25 49.49L108.25 26.25Q108.25 25.59 108.50 25.01Q108.74 24.44 109.18 24.01Q109.62 23.58 110.21 23.34Q110.79 23.10 111.45 23.10L125.76 23.10Q126.95 23.10 128.28 23.36Q129.61 23.63 130.92 24.23Q132.23 24.83 133.41 25.74Q134.59 26.66 135.51 27.97Q136.43 29.27 136.96 30.98Q137.50 32.69 137.50 34.84L137.50 49.49ZM188.82 35.18L168.77 35.18L168.77 28.78L188.82 28.78L188.82 35.18M191.67 49.49L168.77 49.49Q167.46 49.49 165.89 49.02Q164.33 48.56 163.00 47.50Q161.67 46.44 160.78 44.74Q159.89 43.04 159.89 40.58L159.89 17.68Q159.89 17.02 160.13 16.43Q160.38 15.84 160.80 15.41Q161.23 14.97 161.82 14.72Q162.40 14.48 163.09 14.48L191.67 14.48L191.67 20.83L166.24 20.83L166.24 40.58Q166.24 41.82 166.89 42.48Q167.55 43.14 168.82 43.14L191.67 43.14L191.67 49.49ZM225.76 40.58Q225.76 42.21 225.34 43.52Q224.93 44.82 224.24 45.81Q223.56 46.80 222.66 47.50Q221.75 48.19 220.76 48.63Q219.78 49.07 218.76 49.28Q217.75 49.49 216.85 49.49L205.40 49.49Q203.76 49.49 202.47 49.07Q201.17 48.66 200.18 47.96Q199.19 47.27 198.50 46.36Q197.80 45.46 197.36 44.47Q196.92 43.48 196.72 42.47Q196.51 41.46 196.51 40.58L196.51 31.98Q196.51 29.54 197.40 27.84Q198.29 26.15 199.62 25.09Q200.95 24.02 202.51 23.56Q204.08 23.10 205.40 23.10L216.85 23.10L216.85 29.44L205.44 29.44Q204.17 29.44 203.52 30.09Q202.86 30.74 202.86 31.98L202.86 40.53Q202.86 41.82 203.50 42.48Q204.15 43.14 205.40 43.14L216.85 43.14Q218.14 43.14 218.77 42.48Q219.41 41.82 219.41 40.58L219.41 11.94L225.76 11.94L225.76 40.58ZM260.52 52.03Q260.52 53.66 260.11 54.97Q259.69 56.27 259.01 57.26Q258.33 58.25 257.42 58.95Q256.52 59.64 255.53 60.08Q254.54 60.52 253.53 60.73Q252.51 60.94 251.61 60.94L240.16 60.94L240.16 54.59L251.61 54.59Q252.91 54.59 253.54 53.93Q254.17 53.27 254.17 52.03L254.17 31.98Q254.17 30.74 253.54 30.09Q252.91 29.44 251.61 29.44L240.16 29.44Q238.99 29.44 238.31 30.16Q237.62 30.88 237.62 31.98L237.62 40.58Q237.62 41.82 238.28 42.48Q238.94 43.14 240.21 43.14L251.61 43.14L251.61 49.49L240.16 49.49Q239.26 49.49 238.26 49.28Q237.26 49.07 236.27 48.63Q235.28 48.19 234.38 47.50Q233.47 46.80 232.79 45.81Q232.10 44.82 231.69 43.52Q231.27 42.21 231.27 40.58L231.27 31.98Q231.27 31.08 231.48 30.08Q231.69 29.08 232.13 28.09Q232.57 27.10 233.26 26.20Q233.96 25.29 234.95 24.61Q235.94 23.93 237.23 23.51Q238.53 23.10 240.16 23.10L251.61 23.10Q252.51 23.10 253.53 23.30Q254.54 23.51 255.53 23.95Q256.52 24.39 257.42 25.09Q258.33 25.78 259.01 26.77Q259.69 27.76 260.11 29.05Q260.52 30.35 260.52 31.98L260.52 52.03ZM294.73 31.84Q294.73 33.15 294.26 34.68Q293.80 36.21 292.76 37.51Q291.72 38.82 290.05 39.70Q288.38 40.58 285.99 40.58L274.54 40.58L274.54 34.55L285.99 34.55Q287.28 34.55 287.99 33.75Q288.70 32.96 288.70 31.79Q288.70 30.54 287.90 29.83Q287.11 29.13 285.99 29.13L274.54 29.13Q273.24 29.13 272.53 29.92Q271.83 30.71 271.83 31.88L271.83 40.75Q271.83 42.02 272.62 42.72Q273.41 43.43 274.58 43.43L285.99 43.43L285.99 49.49L274.54 49.49Q273.22 49.49 271.69 49.02Q270.17 48.56 268.86 47.52Q267.55 46.48 266.67 44.81Q265.80 43.14 265.80 40.75L265.80 31.84Q265.80 30.52 266.26 28.99Q266.72 27.47 267.76 26.16Q268.80 24.85 270.47 23.97Q272.14 23.10 274.54 23.10L285.99 23.10Q287.30 23.10 288.83 23.56Q290.36 24.02 291.66 25.06Q292.97 26.10 293.85 27.77Q294.73 29.44 294.73 31.84Z"/></g></g></svg>